<svg width="327" height="101" viewBox="0 0 327 101" fill="none" xmlns="http://www.w3.org/2000/svg">
    <path
        d="M54.3143 26.043H76.3186V98.4621H54.3143V91.2202C53.3394 93.727 46.7939 99.8548 35.6525 99.8548C19.0796 99.8548 0 88.017 0 62.1133C0 37.1844 19.0796 24.7896 35.6525 24.7896C46.7939 24.7896 53.3394 31.1959 54.3143 32.7279V26.043ZM38.8556 80.4966C47.908 80.4966 55.2892 74.2296 55.2892 62.1133C55.2892 50.4148 47.908 44.1478 38.8556 44.1478C29.3854 44.1478 21.3079 50.5541 21.3079 62.1133C21.3079 74.0903 29.3854 80.4966 38.8556 80.4966ZM125.759 80.0788C129.658 80.0788 132.443 79.5217 135.507 78.6861V96.9302C132.443 98.3228 127.43 99.2977 120.049 99.2977C107.932 99.2977 97.7658 95.2589 97.7658 72.9761V44.1478H87.5992V26.043H97.7658V9.05238H119.77V26.043H135.229V44.1478H119.77V72.9761C119.77 76.1793 120.606 80.0788 125.759 80.0788ZM169.21 0V98.4621H147.206V0H169.21ZM235.501 26.043H257.506V98.4621H235.501V91.2202C234.526 93.727 227.981 99.8548 216.839 99.8548C200.267 99.8548 181.187 88.017 181.187 62.1133C181.187 37.1844 200.267 24.7896 216.839 24.7896C227.981 24.7896 234.526 31.1959 235.501 32.7279V26.043ZM220.043 80.4966C229.095 80.4966 236.476 74.2296 236.476 62.1133C236.476 50.4148 229.095 44.1478 220.043 44.1478C210.572 44.1478 202.495 50.5541 202.495 62.1133C202.495 74.0903 210.572 80.4966 220.043 80.4966ZM306.11 48.8829C304.16 43.8693 301.236 42.198 298.032 42.198C295.108 42.198 292.183 43.8693 292.183 46.6546C292.183 49.3007 293.854 50.8326 297.057 51.9468L306.249 55.1499C316.555 58.9101 327 62.6704 327 77.1542C327 91.7773 312.377 100.133 297.336 100.133C283.827 100.133 271.154 92.1951 268.09 79.5217L285.359 74.0903C287.17 78.129 290.373 82.7249 297.336 82.7249C302.071 82.7249 305.135 79.661 305.135 76.8756C305.135 75.483 304.021 73.6725 300.539 72.2798L292.044 69.2159C277.56 63.9238 270.736 56.5426 270.736 46.2368C270.736 32.7279 283.27 24.7896 297.057 24.7896C311.124 24.7896 320.454 32.4493 324.632 44.0085L306.11 48.8829Z"
        fill="#4C4C40" />
</svg>