<svg width="438" height="105" viewBox="0 0 438 105" fill="none" xmlns="http://www.w3.org/2000/svg">
<g clip-path="url(#clip0_325_36)">
<path d="M54.3143 31.043H76.3186V103.462H54.3143V96.2202C53.3394 98.727 46.7939 104.855 35.6525 104.855C19.0796 104.855 0 93.017 0 67.1133C0 42.1844 19.0796 29.7896 35.6525 29.7896C46.7939 29.7896 53.3394 36.1959 54.3143 37.7279V31.043ZM38.8556 85.4966C47.908 85.4966 55.2892 79.2296 55.2892 67.1133C55.2892 55.4148 47.908 49.1478 38.8556 49.1478C29.3854 49.1478 21.3079 55.5541 21.3079 67.1133C21.3079 79.0903 29.3854 85.4966 38.8556 85.4966ZM125.759 85.0788C129.658 85.0788 132.443 84.5217 135.507 83.6861V101.93C132.443 103.323 127.43 104.298 120.049 104.298C107.932 104.298 97.7658 100.259 97.7658 77.9762V49.1478H87.5992V31.043H97.7658V14.0524H119.77V31.043H135.229V49.1478H119.77V77.9762C119.77 81.1793 120.606 85.0788 125.759 85.0788ZM169.21 5V103.462H147.206V5H169.21ZM235.501 31.043H257.506V103.462H235.501V96.2202C234.526 98.727 227.981 104.855 216.839 104.855C200.267 104.855 181.187 93.017 181.187 67.1133C181.187 42.1844 200.267 29.7896 216.839 29.7896C227.981 29.7896 234.526 36.1959 235.501 37.7279V31.043ZM220.043 85.4966C229.095 85.4966 236.476 79.2296 236.476 67.1133C236.476 55.4148 229.095 49.1478 220.043 49.1478C210.572 49.1478 202.495 55.5541 202.495 67.1133C202.495 79.0903 210.572 85.4966 220.043 85.4966ZM306.11 53.8829C304.16 48.8693 301.236 47.198 298.032 47.198C295.108 47.198 292.183 48.8693 292.183 51.6546C292.183 54.3007 293.854 55.8326 297.057 56.9468L306.249 60.1499C316.555 63.9101 327 67.6704 327 82.1542C327 96.7773 312.377 105.133 297.336 105.133C283.827 105.133 271.154 97.1951 268.09 84.5217L285.359 79.0903C287.17 83.129 290.373 87.7249 297.336 87.7249C302.071 87.7249 305.135 84.661 305.135 81.8756C305.135 80.483 304.021 78.6725 300.539 77.2798L292.044 74.2159C277.56 68.9238 270.736 61.5426 270.736 51.2368C270.736 37.7279 283.27 29.7896 297.057 29.7896C311.124 29.7896 320.454 37.4493 324.632 49.0085L306.11 53.8829Z" fill="#4C4C3E"/>
<path d="M341.64 39V11H351.44L356.28 35.4H357L361.84 11H371.64V39H366.52V14.88H365.8L361 39H352.28L347.48 14.88H346.76V39H341.64ZM383.233 39.56C381.82 39.56 380.553 39.32 379.433 38.84C378.313 38.3333 377.42 37.6133 376.753 36.68C376.113 35.72 375.793 34.56 375.793 33.2C375.793 31.84 376.113 30.7067 376.753 29.8C377.42 28.8667 378.327 28.1733 379.473 27.72C380.647 27.24 381.98 27 383.473 27H388.913V25.88C388.913 24.9467 388.62 24.1867 388.033 23.6C387.447 22.9867 386.513 22.68 385.233 22.68C383.98 22.68 383.047 22.9733 382.433 23.56C381.82 24.12 381.42 24.8533 381.233 25.76L376.593 24.2C376.913 23.1867 377.42 22.2667 378.113 21.44C378.833 20.5867 379.78 19.9067 380.953 19.4C382.153 18.8667 383.607 18.6 385.313 18.6C387.927 18.6 389.993 19.2533 391.513 20.56C393.033 21.8667 393.793 23.76 393.793 26.24V33.64C393.793 34.44 394.167 34.84 394.913 34.84H396.513V39H393.153C392.167 39 391.353 38.76 390.713 38.28C390.073 37.8 389.753 37.16 389.753 36.36V36.32H388.993C388.887 36.64 388.647 37.0667 388.273 37.6C387.9 38.1067 387.313 38.56 386.513 38.96C385.713 39.36 384.62 39.56 383.233 39.56ZM384.113 35.48C385.527 35.48 386.673 35.0933 387.553 34.32C388.46 33.52 388.913 32.4667 388.913 31.16V30.76H383.833C382.9 30.76 382.167 30.96 381.633 31.36C381.1 31.76 380.833 32.32 380.833 33.04C380.833 33.76 381.113 34.3467 381.673 34.8C382.233 35.2533 383.047 35.48 384.113 35.48ZM400.198 39V19.16H405.158V21.4H405.878C406.172 20.6 406.652 20.0133 407.318 19.64C408.012 19.2667 408.812 19.08 409.718 19.08H412.118V23.56H409.638C408.358 23.56 407.305 23.9067 406.478 24.6C405.652 25.2667 405.238 26.3067 405.238 27.72V39H400.198ZM418.218 47V42.6H429.018C429.764 42.6 430.138 42.2 430.138 41.4V36.4H429.418C429.204 36.8533 428.871 37.3067 428.418 37.76C427.964 38.2133 427.351 38.5867 426.578 38.88C425.804 39.1733 424.818 39.32 423.618 39.32C422.071 39.32 420.711 38.9733 419.538 38.28C418.391 37.56 417.498 36.5733 416.858 35.32C416.218 34.0667 415.898 32.6267 415.898 31V19.16H420.938V30.6C420.938 32.0933 421.298 33.2133 422.018 33.96C422.764 34.7067 423.818 35.08 425.178 35.08C426.724 35.08 427.924 34.5733 428.778 33.56C429.631 32.52 430.058 31.08 430.058 29.24V19.16H435.098V42.52C435.098 43.88 434.698 44.96 433.898 45.76C433.098 46.5867 432.031 47 430.698 47H418.218Z" fill="#4C4C3E"/>
</g>
<defs>
<clipPath id="clip0_325_36">
<rect width="438" height="105" fill="white"/>
</clipPath>
</defs>
</svg>
